<svg width="21" height="10" viewBox="0 0 21 10" fill="none" xmlns="http://www.w3.org/2000/svg">
<path d="M6.21 7.89V9H1.41V7.89H3.168V2.832C3.168 2.632 3.174 2.426 3.186 2.214L1.938 3.258C1.866 3.314 1.794 3.35 1.722 3.366C1.654 3.378 1.588 3.378 1.524 3.366C1.464 3.354 1.41 3.334 1.362 3.306C1.314 3.274 1.278 3.24 1.254 3.204L0.786 2.562L3.432 0.312H4.65V7.89H6.21ZM10.6409 7.938C10.8849 7.938 11.0989 7.904 11.2829 7.836C11.4669 7.764 11.6209 7.666 11.7449 7.542C11.8729 7.418 11.9689 7.27 12.0329 7.098C12.0969 6.926 12.1289 6.74 12.1289 6.54C12.1289 6.064 11.9969 5.704 11.7329 5.46C11.4689 5.216 11.1049 5.094 10.6409 5.094C10.1769 5.094 9.81294 5.216 9.54894 5.46C9.28494 5.704 9.15294 6.064 9.15294 6.54C9.15294 6.74 9.18494 6.926 9.24894 7.098C9.31294 7.27 9.40694 7.418 9.53094 7.542C9.65894 7.666 9.81494 7.764 9.99894 7.836C10.1829 7.904 10.3969 7.938 10.6409 7.938ZM10.6409 1.344C10.4209 1.344 10.2309 1.378 10.0709 1.446C9.91094 1.514 9.77694 1.606 9.66894 1.722C9.56494 1.834 9.48694 1.964 9.43494 2.112C9.38694 2.26 9.36294 2.416 9.36294 2.58C9.36294 2.752 9.38294 2.92 9.42294 3.084C9.46694 3.244 9.53894 3.388 9.63894 3.516C9.73894 3.64 9.87094 3.74 10.0349 3.816C10.1989 3.892 10.4009 3.93 10.6409 3.93C10.8809 3.93 11.0829 3.892 11.2469 3.816C11.4109 3.74 11.5429 3.64 11.6429 3.516C11.7429 3.388 11.8129 3.244 11.8529 3.084C11.8969 2.92 11.9189 2.752 11.9189 2.58C11.9189 2.416 11.8929 2.26 11.8409 2.112C11.7889 1.964 11.7109 1.834 11.6069 1.722C11.5029 1.606 11.3709 1.514 11.2109 1.446C11.0509 1.378 10.8609 1.344 10.6409 1.344ZM12.1049 4.476C12.6329 4.648 13.0229 4.912 13.2749 5.268C13.5269 5.62 13.6529 6.052 13.6529 6.564C13.6529 6.948 13.5789 7.296 13.4309 7.608C13.2869 7.92 13.0829 8.186 12.8189 8.406C12.5549 8.626 12.2369 8.796 11.8649 8.916C11.4969 9.036 11.0889 9.096 10.6409 9.096C10.1929 9.096 9.78294 9.036 9.41094 8.916C9.04294 8.796 8.72694 8.626 8.46294 8.406C8.19894 8.186 7.99294 7.92 7.84494 7.608C7.70094 7.296 7.62894 6.948 7.62894 6.564C7.62894 6.052 7.75494 5.62 8.00694 5.268C8.25894 4.912 8.64894 4.648 9.17694 4.476C8.75694 4.3 8.44094 4.05 8.22894 3.726C8.02094 3.402 7.91694 3.012 7.91694 2.556C7.91694 2.228 7.98294 1.922 8.11494 1.638C8.25094 1.354 8.43894 1.108 8.67894 0.9C8.91894 0.687999 9.20494 0.523999 9.53694 0.408C9.87294 0.288 10.2409 0.228 10.6409 0.228C11.0409 0.228 11.4069 0.288 11.7389 0.408C12.0749 0.523999 12.3629 0.687999 12.6029 0.9C12.8429 1.108 13.0289 1.354 13.1609 1.638C13.2969 1.922 13.3649 2.228 13.3649 2.556C13.3649 3.012 13.2589 3.402 13.0469 3.726C12.8389 4.05 12.5249 4.3 12.1049 4.476ZM20.7299 5.52H18.4019V7.992H17.1959V5.52H14.8799V4.422H17.1959V1.962H18.4019V4.422H20.7299V5.52Z" fill="#C1C2C4"/>
</svg>
